# xmcd CD database file
#
# Track frame offsets:
#	150
#	19331
#	40257
#	59856
#	83966
#	102398
#	132384
#	146651
#
# Disc length: 2201 seconds
#
# Revision: 0
# Processed by: cddbd v1.5.2PL0 Copyright (c) Steve Scherf et al.
# Submitted via: CDex 1.51
#
DISCID=78089708
DTITLE=Earnest 'Guitar' Roy - Going Down To Clarksdale
DYEAR=2011
DGENRE=Blues
TTITLE0=Hard Headed Woman
TTITLE1=Going Down To Clarksville
TTITLE2=Evaline
TTITLE3=A Letter To My Sweetheart
TTITLE4=How Long
TTITLE5=I Wanna Know What My Little Girls's Been Doin'
TTITLE6=Somebody's Gotta Give
TTITLE7=Too Many Women
EXTD=YEAR: 2011
EXTT0=
EXTT1=
EXTT2=
EXTT3=
EXTT4=
EXTT5=
EXTT6=
EXTT7=
PLAYORDER=
